<?xml version="1.0" encoding="UTF-8"?><svg id="Capa_2" xmlns="http://www.w3.org/2000/svg" viewBox="0 0 102.39 92.92"><defs><style>.cls-1{fill:#008142;}.cls-2{fill:#f29104;}.cls-3{fill:#fecf02;}.cls-4{fill:#89a927;}</style></defs><g id="Capa_1-2"><g><g><g><path class="cls-2" d="M0,77.54H2.68v1.76c.63-1.11,2.03-2,3.5-2,1.88,0,3.14,.82,3.76,2.27,.8-1.4,2.48-2.27,3.91-2.27,3.14,0,4.53,1.93,4.53,5.31v6.87h-2.68v-6.51c0-1.66-.36-3.09-2.46-3.09-1.71,0-2.7,1.35-2.7,2.97v6.63h-2.68v-6.51c0-1.66-.36-3.09-2.46-3.09-1.78,0-2.73,1.52-2.73,3.14v6.46H0v-11.94Z"/><path class="cls-2" d="M20.62,74.18c0-.89,.72-1.64,1.62-1.64s1.64,.75,1.64,1.64-.75,1.62-1.64,1.62-1.62-.72-1.62-1.62Zm.29,3.35h2.68v11.94h-2.68v-11.94Z"/><path class="cls-1" d="M26.29,77.54h2.56v1.5c.97-1.11,2.44-1.74,4.1-1.74,3.28,0,5.52,2.77,5.52,6.2s-2.24,6.22-5.52,6.22c-1.62,0-3.04-.65-3.98-1.76v4.97h-2.68v-15.39Zm9.45,5.96c0-2.1-1.45-3.62-3.47-3.62-1.88,0-3.31,1.5-3.31,3.62s1.4,3.64,3.31,3.64c2.03,0,3.47-1.54,3.47-3.64Z"/><path class="cls-1" d="M40.35,83.52c0-3.45,2.24-6.22,5.52-6.22,1.62,0,3.04,.65,3.98,1.76v-1.52h2.68v11.94h-2.68v-1.5c-.94,1.11-2.36,1.74-3.98,1.74-3.28,0-5.52-2.77-5.52-6.2Zm9.5,0c0-2.1-1.4-3.64-3.3-3.64-2.03,0-3.47,1.54-3.47,3.64s1.45,3.62,3.47,3.62c1.88,0,3.3-1.5,3.3-3.62Z"/><path class="cls-1" d="M55.24,77.54h2.68v1.76c.63-1.11,2.03-2,3.5-2,1.88,0,3.13,.82,3.76,2.27,.8-1.4,2.48-2.27,3.91-2.27,3.14,0,4.53,1.93,4.53,5.31v6.87h-2.68v-6.51c0-1.66-.36-3.09-2.46-3.09-1.71,0-2.7,1.35-2.7,2.97v6.63h-2.68v-6.51c0-1.66-.36-3.09-2.46-3.09-1.78,0-2.73,1.52-2.73,3.14v6.46h-2.68v-11.94Z"/><path class="cls-1" d="M76.15,77.54h2.56v1.5c.97-1.11,2.44-1.74,4.1-1.74,3.28,0,5.52,2.77,5.52,6.2s-2.24,6.22-5.52,6.22c-1.62,0-3.04-.65-3.98-1.76v4.97h-2.68v-15.39Zm9.45,5.96c0-2.1-1.45-3.62-3.47-3.62-1.88,0-3.31,1.5-3.31,3.62s1.4,3.64,3.31,3.64c2.03,0,3.47-1.54,3.47-3.64Z"/><path class="cls-1" d="M90.21,83.52c0-3.45,2.24-6.22,5.52-6.22,1.62,0,3.04,.65,3.98,1.76v-1.52h2.68v11.94h-2.68v-1.5c-.94,1.11-2.36,1.74-3.98,1.74-3.28,0-5.52-2.77-5.52-6.2Zm9.5,0c0-2.1-1.4-3.64-3.3-3.64-2.03,0-3.47,1.54-3.47,3.64s1.45,3.62,3.47,3.62c1.88,0,3.3-1.5,3.3-3.62Z"/></g><path class="cls-1" d="M26.85,69.19c-3.67-.54-7.5,3.49-6.01,6.72,3.63,.62,7.67-3.54,6.01-6.72Z"/></g><g><path class="cls-3" d="M53.39,25.69s-.03,.09-.04,.14c3.61-3.93,8.78-6.4,14.52-6.4,6.85,0,12.9,3.52,16.43,8.84-3.21-10.68-12.47-18.74-23.8-20.21-3.41,4.2-5.44,11.57-7.12,17.63Z"/><path class="cls-2" d="M83.36,30.92c-2.95-5.54-8.78-9.32-15.49-9.32-8.71,0-15.96,6.38-17.31,14.72,4,.8,7.79,2.14,11.32,3.94,5.84-5.17,13.28-8.57,21.47-9.34Z"/><g><path class="cls-4" d="M50.35,38.48c-.36-.07-.72-.13-1.08-.19-.36-.06-.72-.13-1.08-.19-.44-.07-.88-.12-1.33-.17-.92,.76-1.92,1.44-3.01,2-2.56,1.33-5.49,2.01-8.41,2.01-1.96,0-3.91-.3-5.75-.92-.47-.16-.93-.35-1.4-.55,.47,3.43,1.53,6.67,3.1,9.6,4.8-2.8,10.37-4.41,16.32-4.41,.53,0,1.05,.01,1.57,.04,.4,.02,.79,.05,1.19,.09,.41,.03,.82,.08,1.22,.13,1.49,.18,2.94,.46,4.36,.84,1.24-1.75,2.62-3.4,4.14-4.92-3.09-1.5-6.39-2.64-9.85-3.35Z"/><path class="cls-4" d="M52.92,48.29c-.46-.08-.92-.15-1.38-.21-.43-.05-.85-.1-1.29-.13-.83-.07-1.68-.11-2.53-.11-5.55,0-10.74,1.5-15.22,4.11,1.36,2.14,2.99,4.09,4.85,5.79,3.48-1.37,7.27-2.13,11.23-2.13,.93,0,1.85,.05,2.76,.13,.47-1.29,1-2.55,1.6-3.77,.17-.35,.35-.69,.53-1.04,.19-.35,.38-.69,.57-1.04,.24-.42,.48-.83,.73-1.23-.61-.15-1.23-.27-1.86-.38Z"/><path class="cls-4" d="M50.64,57.87c-.68-.05-1.37-.08-2.07-.08-3.26,0-6.39,.55-9.31,1.56,2.96,2.28,6.36,3.99,10.07,4.98,.25-2.22,.69-4.37,1.31-6.46Z"/><path class="cls-4" d="M85.29,32.96c-.33,.02-.65,.04-.98,.07-7.74,.57-14.8,3.61-20.38,8.34-.29,.24-.58,.49-.86,.74-.28,.26-.56,.52-.84,.79-1.45,1.39-2.79,2.9-3.98,4.52-.22,.3-.44,.61-.65,.92-.21,.31-.42,.62-.63,.94-.49,.76-.97,1.54-1.4,2.34-.18,.33-.35,.68-.52,1.01-.17,.34-.33,.68-.49,1.02-.36,.78-.7,1.57-1,2.37-.13,.34-.25,.69-.37,1.03-.12,.35-.24,.69-.35,1.05-.64,2.07-1.09,4.22-1.34,6.43-.01,.09-.02,.18-.03,.27,1.72,.32,3.5,.5,5.32,.5,.09,0,.17,0,.26,0,.1,0,.21,0,.31,0,.25-1.96,.7-3.85,1.35-5.65,.12-.34,.26-.68,.4-1.02,.14-.33,.28-.66,.43-.99,.08-.18,.16-.36,.24-.53,.16-.32,.32-.65,.49-.96,.17-.32,.35-.64,.54-.95,.66-1.12,1.4-2.19,2.22-3.19,.23-.29,.47-.57,.72-.85,.24-.28,.49-.55,.74-.81,1.17-1.22,2.45-2.33,3.83-3.32,.31-.22,.63-.44,.96-.65,.31-.2,.63-.4,.95-.59,3.94-2.32,8.52-3.66,13.41-3.66,.45,0,.9,.01,1.34,.03,.2-1.01,.34-2.05,.43-3.1,.07-.82,.11-1.65,.11-2.49,0-1.22-.08-2.42-.23-3.6Z"/><path class="cls-4" d="M83.63,44.28c-4.23,0-8.22,1.09-11.69,3-.32,.18-.65,.36-.96,.56-.33,.2-.65,.41-.96,.62-1.33,.9-2.56,1.93-3.69,3.07-.25,.26-.5,.52-.74,.79-.25,.27-.49,.55-.72,.83-.73,.88-1.39,1.81-1.99,2.79-.2,.32-.38,.64-.56,.97-.18,.32-.34,.64-.51,.97-.1,.19-.19,.39-.28,.59-.15,.33-.29,.65-.43,.99-.14,.34-.27,.68-.39,1.02-.53,1.5-.92,3.07-1.15,4.68,2.14-.21,4.21-.65,6.19-1.3,.03-.1,.05-.2,.08-.3,.1-.37,.22-.74,.35-1.11,.12-.35,.25-.69,.4-1.03,.4-.91,.89-1.78,1.45-2.59,.27-.38,.54-.75,.84-1.11,.2-.23,.41-.45,.61-.68,.16-.17,.33-.35,.5-.51,.09-.09,.19-.17,.28-.26,.26-.24,.53-.48,.81-.71,1.09-.88,2.3-1.61,3.6-2.17,.35-.15,.72-.28,1.09-.4,.36-.12,.73-.23,1.1-.33,.86-.22,1.75-.38,2.66-.45,.41-.03,.81-.06,1.23-.06,.05,0,.1,0,.15,0,1.08-1.66,1.99-3.44,2.71-5.32,.32-.83,.6-1.68,.84-2.55-.28,0-.55-.02-.83-.02Z"/><path class="cls-4" d="M78.29,54.57s-.02,.01-.03,.02c0,0,0,0,0-.01-.38,.07-.75,.17-1.12,.27-.37,.11-.74,.23-1.09,.36-1.25,.48-2.41,1.13-3.45,1.94-.02,.01-.03,.02-.05,.04-.28,.22-.55,.46-.81,.7-.24,.23-.48,.46-.71,.7-.02,.03-.05,.05-.07,.08-1.1,1.2-1.99,2.6-2.59,4.14,0,.02-.02,.05-.03,.07,.02-.01,.05-.02,.07-.03,1.42-.63,2.78-1.37,4.07-2.21,.31-.2,.61-.41,.91-.62,.29-.21,.58-.42,.86-.63,1.03-.79,2-1.64,2.91-2.55,.22-.22,.44-.46,.65-.69,.04-.05,.09-.09,.13-.13,.25-.27,.49-.55,.73-.83,.21-.25,.42-.5,.62-.76-.34,.04-.67,.09-1,.15Z"/></g><path class="cls-1" d="M38.21,0c-6.23,0-12.11,2.21-17.04,8.23-1.28,1.56-2.21,3.12-2.88,4.65-1.68,3.86-1.64,7.5-1.05,10.4,.11,.52,.23,1.03,.37,1.5,1.31,4.54,4.29,8.76,7.92,11.53-.03-.22-.06-.44-.08-.66-.74-7.43,1.46-14.7,6.19-20.48,4.73-5.78,11.43-9.37,18.86-10.11,2.49-.25,4.97-.16,7.37,.24C51.38,2.34,44.61,0,38.21,0Z"/><path class="cls-1" d="M53.31,7.09c-.86,0-1.73,.04-2.6,.13-6.85,.68-13.03,3.99-17.39,9.32-4.36,5.33-6.39,12.04-5.71,18.89,.08,.83,.21,1.65,.37,2.46,.03,.02,.06,.04,.09,.05,.35,.19,.71,.36,1.07,.52,.42,.18,.84,.35,1.26,.5,.16,.06,.33,.09,.5,.14,3.92,1.17,8.35,.78,11.96-1.09,.2-.1,.39-.23,.58-.34,.53-.31,1.04-.64,1.52-1.01,.41-.31,.81-.64,1.18-1,1.89-1.78,3.28-4.06,4.08-6.75,.35-1.17,.7-2.45,1.08-3.8,1.59-5.76,3.49-12.64,6.67-17.27,.07-.1,.14-.18,.2-.28-1.59-.31-3.22-.47-4.86-.47Z"/></g></g></g></svg>